<svg xmlns="http://www.w3.org/2000/svg" width="124.41" height="22.009"><defs><clipPath id="a"><path data-name="Caminho 3439" d="m223.766-77.408-3.141 3.141h-15.706l12.564-18.868h-12.564l3.141-3.141h15.706L211.2-77.408Z" transform="translate(-204.919 96.276)" fill="none"/></clipPath><clipPath id="c"><path data-name="Caminho 3441" d="m318.183-77.408-3.141 3.141h-12.565v-22.009h15.706l-3.141 3.141h-9.423v6.282h10.994l-3.141 3.141h-7.853v6.3Z" transform="translate(-302.477 96.276)" fill="none"/></clipPath><clipPath id="d"><path data-name="Caminho 3443" d="M400.182-74.267h-3.141v-9.423h-10.994v9.423h-3.141v-22.009h14.135l3.141 3.147v6.294l-2.094 1.574 2.094 1.571Zm-14.135-12.565h10.994v-6.3h-10.994Z" transform="translate(-382.906 96.276)" fill="none"/></clipPath><clipPath id="e"><path data-name="Caminho 3445" d="m485.853-77.411-3.162 3.144H471.7l-3.141-3.144v-15.721l3.141-3.144h10.994l3.162 3.144Zm-14.156 0h11.015v-15.724H471.7Z" transform="translate(-468.556 96.276)" fill="none"/></clipPath><linearGradient id="b" x1=".372" y1=".313" x2="1" y2=".313" gradientUnits="objectBoundingBox"><stop offset="0" stop-color="#1b4eff"/><stop offset=".1" stop-color="#1b56fd"/><stop offset=".2" stop-color="#1a5efb"/><stop offset=".3" stop-color="#1a66f9"/><stop offset=".4" stop-color="#196df7"/><stop offset=".5" stop-color="#1975f5"/><stop offset=".6" stop-color="#187df3"/><stop offset=".7" stop-color="#1784f1"/><stop offset=".8" stop-color="#178cef"/><stop offset=".9" stop-color="#1694ed"/><stop offset="1" stop-color="#169ceb"/></linearGradient></defs><g data-name="Grupo 1623"><path data-name="Caminho 3435" d="m17.276 18.865-3.162 3.144H0V0h14.135l3.141 3.144Zm-14.135 0h10.994V3.141H3.141Z" fill="#fff"/><path data-name="Caminho 3436" d="M20.375 22.009h3.141V0h-3.141Z" fill="#fff"/><path data-name="Caminho 3437" d="M44.018 22.009h-3.141v-7.853H29.883v7.853h-3.141V3.147L29.883 0h10.994l3.141 3.144ZM29.883 11.015h10.994V3.141H29.883Z" fill="#fff"/><g data-name="Grupo 1624" transform="translate(46.845)" clip-path="url(#a)"><g data-name="Grupo 1623"><path data-name="Caminho 3438" d="M-202.237-30.128h124.41v22.009h-124.41Z" transform="translate(155.392 30.128)" fill="url(#b)"/></g></g><g data-name="Grupo 1626" transform="translate(69.147)" clip-path="url(#c)"><g data-name="Grupo 1625"><path data-name="Caminho 3440" d="M-202.237-30.128h124.41v22.009h-124.41Z" transform="translate(133.09 30.128)" fill="url(#b)"/></g></g><g data-name="Grupo 1628" transform="translate(87.533)" clip-path="url(#d)"><g data-name="Grupo 1627"><path data-name="Caminho 3442" d="M-202.237-30.128h124.41v22.009h-124.41Z" transform="translate(114.704 30.128)" fill="url(#b)"/></g></g><g data-name="Grupo 1630" transform="translate(107.113)" clip-path="url(#e)"><g data-name="Grupo 1629"><path data-name="Caminho 3444" d="M-202.237-30.128h124.41v22.009h-124.41Z" transform="translate(95.124 30.128)" fill="url(#b)"/></g></g></g></svg>